<svg xmlns="http://www.w3.org/2000/svg" xmlns:xlink="http://www.w3.org/1999/xlink" width="840" height="494.2"><rect width="840" height="494.2" rx="5" ry="5" class="a"/><svg y="0%" x="0%"><circle cx="20" cy="20" r="6" fill="#ff5f58"/><circle cx="40" cy="20" r="6" fill="#ffbd2e"/><circle cx="60" cy="20" r="6" fill="#18c132"/></svg><svg height="434.2" viewBox="0 0 80 43.42" width="800" x="15" xmlns="http://www.w3.org/2000/svg" xmlns:xlink="http://www.w3.org/1999/xlink" y="50"><style>@keyframes n{0%{transform:translateX(0)}1.3%{transform:translateX(-80px)}4.4%{transform:translateX(-160px)}4.7%{transform:translateX(-240px)}5.3%{transform:translateX(-320px)}6.1%{transform:translateX(-400px)}7.5%{transform:translateX(-480px)}8.4%{transform:translateX(-560px)}9%{transform:translateX(-640px)}9.6%{transform:translateX(-720px)}10.2%{transform:translateX(-800px)}10.5%{transform:translateX(-880px)}12.7%{transform:translateX(-960px)}13%{transform:translateX(-1120px)}28.9%{transform:translateX(-1200px)}30.9%{transform:translateX(-1360px)}35.6%{transform:translateX(-1440px)}40.3%{transform:translateX(-1520px)}45.1%{transform:translateX(-1600px)}49.6%{transform:translateX(-1680px)}56.9%{transform:translateX(-1760px)}62.2%{transform:translateX(-1840px)}66.7%{transform:translateX(-1920px)}71.3%{transform:translateX(-2000px)}75.8%{transform:translateX(-2080px)}80.3%{transform:translateX(-2320px)}84.7%{transform:translateX(-2400px)}85.4%{transform:translateX(-2480px)}85.8%{transform:translateX(-2560px)}86.5%{transform:translateX(-2640px)}87.3%{transform:translateX(-2720px)}88.3%{transform:translateX(-2800px)}88.7%{transform:translateX(-2880px)}89.1%{transform:translateX(-2960px)}89.7%{transform:translateX(-3040px)}91.7%{transform:translateX(-3280px)}to{transform:translateX(-3360px)}}.a{fill:#1e1f29}.h{fill:#bd93f9;font-weight:700}.h,.i,.j,.k{white-space:pre}.i{fill:#6b75ff;font-weight:700}.j,.k{fill:#fff}.k{fill:#50fa7b}</style><g font-family="Monaco,Consolas,Menlo,'Bitstream Vera Sans Mono','Powerline Symbols',monospace" font-size="1.67"><defs><symbol id="1"><path fill="#b9c0cb" d="M0 0h1v2.171H0z"/><text y="1.67" style="white-space:pre" fill="#1e1f29" font-weight="700">%</text></symbol><symbol id="2"><text y="1.67" class="h">Downloads</text><text x="10.02" y="1.67" class="i">%</text></symbol><symbol id="3"><text y="1.67" class="h">Downloads</text><text x="10.02" y="1.67" class="i">%</text><text x="12.024" y="1.67" class="j">dict2anki</text><text x="22.044" y="1.67" class="j">-i</text></symbol><symbol id="4"><text y="1.67" class="h">Downloads</text><text x="10.02" y="1.67" class="i">%</text><text x="12.024" y="1.67" class="j">dict2anki</text><text x="22.044" y="1.67" class="j">-i</text><text x="25.05" y="1.67" class="j">vocabulary.txt</text></symbol><symbol id="5"><text y="1.67" class="k">I/cli</text><text x="12.024" y="1.67" class="k">:</text><text x="14.028" y="1.67" class="k">no</text><text x="17.034" y="1.67" class="k">extractor</text><text x="27.054" y="1.67" class="k">specified,</text><text x="38.076" y="1.67" class="k">using</text><text x="44.088" y="1.67" class="k">default:</text><text x="53.106" y="1.67" class="k">cambridge</text></symbol><symbol id="6"><text y="1.67" class="k">I/extractor</text><text x="12.024" y="1.67" class="k">:</text><text x="14.028" y="1.67" class="k">generating</text><text x="25.05" y="1.67" class="k">front</text><text x="31.062" y="1.67" class="k">template</text></symbol><symbol id="7"><text y="1.67" class="k">I/extractor</text><text x="12.024" y="1.67" class="k">:</text><text x="14.028" y="1.67" class="k">generated</text><text x="24.048" y="1.67" class="k">front</text><text x="30.06" y="1.67" class="k">template</text><text x="39.078" y="1.67" class="k">to:</text><text x="43.086" y="1.67" class="k">./cambridge/front-template.txt</text></symbol><symbol id="8"><text y="1.67" class="k">I/extractor</text><text x="12.024" y="1.67" class="k">:</text><text x="14.028" y="1.67" class="k">generating</text><text x="25.05" y="1.67" class="k">back</text><text x="30.06" y="1.67" class="k">template</text></symbol><symbol id="9"><text y="1.67" class="k">I/extractor</text><text x="12.024" y="1.67" class="k">:</text><text x="14.028" y="1.67" class="k">generated</text><text x="24.048" y="1.67" class="k">back</text><text x="29.058" y="1.67" class="k">template</text><text x="38.076" y="1.67" class="k">to:</text><text x="42.084" y="1.67" class="k">./cambridge/back-template.txt</text></symbol><symbol id="10"><text y="1.67" class="k">I/cambridge</text><text x="12.024" y="1.67" class="k">:</text><text x="14.028" y="1.67" class="k">retrieving</text><text x="25.05" y="1.67" class="k">styling</text></symbol><symbol id="11"><text y="1.67" class="k">I/cambridge</text><text x="12.024" y="1.67" class="k">:</text><text x="14.028" y="1.67" class="k">saved</text><text x="20.04" y="1.67" class="k">font</text><text x="25.05" y="1.67" class="k">file</text><text x="30.06" y="1.67" class="k">to:</text><text x="34.068" y="1.67" class="k">./cambridge/collection.media/_cdoicons.woff</text></symbol><symbol id="12"><text y="1.67" class="k">I/cambridge</text><text x="12.024" y="1.67" class="k">:</text><text x="14.028" y="1.67" class="k">retrieved</text><text x="24.048" y="1.67" class="k">styling</text></symbol><symbol id="13"><text y="1.67" class="k">I/extractor</text><text x="12.024" y="1.67" class="k">:</text><text x="14.028" y="1.67" class="k">generating</text><text x="25.05" y="1.67" class="k">styling</text></symbol><symbol id="14"><text y="1.67" class="k">I/extractor</text><text x="12.024" y="1.67" class="k">:</text><text x="14.028" y="1.67" class="k">generated</text><text x="24.048" y="1.67" class="k">styling</text><text x="32.064" y="1.67" class="k">to:</text><text x="36.072" y="1.67" class="k">./cambridge/styling.txt</text></symbol><symbol id="15"><text y="1.67" class="k">I/extractor</text><text x="12.024" y="1.67" class="k">:</text><text x="14.028" y="1.67" class="k">trying</text><text x="21.042" y="1.67" class="k">to</text><text x="24.048" y="1.67" class="k">generate</text><text x="33.066" y="1.67" class="k">10</text><text x="36.072" y="1.67" class="k">cards</text></symbol><symbol id="16"><text x="2.004" y="1.67" class="j">100%</text><text x="7.014" y="1.67" class="j">├█████████████████████████┤</text><text x="42.084" y="1.67" class="j">10</text><text x="45.09" y="1.67" class="j">/</text><text x="47.094" y="1.67" class="j">10</text><text x="70.14" y="1.67" class="j">abound</text></symbol><symbol id="17"><text y="1.67" class="k">I/extractor</text><text x="12.024" y="1.67" class="k">:</text><text x="14.028" y="1.67" class="k">generated</text><text x="24.048" y="1.67" class="k">10</text><text x="27.054" y="1.67" class="k">cards</text><text x="33.066" y="1.67" class="k">to:</text><text x="37.074" y="1.67" class="k">./cambridge/cards.txt</text></symbol><symbol id="18"><text y="1.67" class="h">Downloads</text><text x="10.02" y="1.67" class="i">%</text><text x="12.024" y="1.67" class="j">tree</text></symbol><symbol id="19"><text y="1.67" class="h">Downloads</text><text x="10.02" y="1.67" class="i">%</text><text x="12.024" y="1.67" class="j">tree</text><text x="17.034" y="1.67" class="j">cambridge</text></symbol><symbol id="20"><text y="1.67" class="h">cambridge</text></symbol><symbol id="21"><text y="1.67" class="j">├──</text><text x="4.008" y="1.67" class="j">back-template.txt</text></symbol><symbol id="22"><text y="1.67" class="j">├──</text><text x="4.008" y="1.67" class="j">cards.txt</text></symbol><symbol id="23"><text y="1.67" class="j">├──</text><text x="4.008" y="1.67" class="h">collection.media</text></symbol><symbol id="24"><text y="1.67" class="j">│</text><text x="4.008" y="1.67" class="j">└──</text><text x="8.016" y="1.67" class="j">_cdoicons.woff</text></symbol><symbol id="25"><text y="1.67" class="j">├──</text><text x="4.008" y="1.67" class="j">front-template.txt</text></symbol><symbol id="26"><text y="1.67" class="j">└──</text><text x="4.008" y="1.67" class="j">styling.txt</text></symbol><symbol id="27"><text y="1.67" class="j">1</text><text x="2.004" y="1.67" class="j">directory,</text><text x="13.026" y="1.67" class="j">5</text><text x="15.03" y="1.67" class="j">files</text></symbol><symbol id="a"><path fill="transparent" d="M0 0h80v21H0z"/></symbol><symbol id="b"><path fill="#929292" d="M0 0h1.102v2.171H0z"/></symbol></defs><path class="a" d="M0 0h80v43.42H0z"/><g style="animation-duration:13.847585s;animation-iteration-count:infinite;animation-name:n;animation-timing-function:steps(1,end)"><svg width="3440"><svg><use xlink:href="#a"/><use xlink:href="#b" x="-.004"/></svg><svg x="80"><use xlink:href="#a"/><use xlink:href="#b" x="11.996" y="2.146"/><use xlink:href="#1"/><use xlink:href="#2" y="2.171"/></svg><svg x="160"><use xlink:href="#a"/><use xlink:href="#b" x="12.996" y="2.146"/><use xlink:href="#1"/><text y="3.841" class="h">Downloads</text><text x="10.02" y="3.841" class="i">%</text><text x="12.024" y="3.841" class="j">d</text></svg><svg x="240"><use xlink:href="#a"/><use xlink:href="#b" x="13.996" y="2.146"/><use xlink:href="#1"/><text y="3.841" class="h">Downloads</text><text x="10.02" y="3.841" class="i">%</text><text x="12.024" y="3.841" class="j">di</text></svg><svg x="320"><use xlink:href="#a"/><use xlink:href="#b" x="14.996" y="2.146"/><use xlink:href="#1"/><text y="3.841" class="h">Downloads</text><text x="10.02" y="3.841" class="i">%</text><text x="12.024" y="3.841" class="j">dic</text></svg><svg x="400"><use xlink:href="#a"/><use xlink:href="#b" x="21.996" y="2.146"/><use xlink:href="#1"/><text y="3.841" class="h">Downloads</text><text x="10.02" y="3.841" class="i">%</text><text x="12.024" y="3.841" class="j">dict2anki</text></svg><svg x="480"><use xlink:href="#a"/><use xlink:href="#b" x="22.996" y="2.146"/><use xlink:href="#1"/><text y="3.841" class="h">Downloads</text><text x="10.02" y="3.841" class="i">%</text><text x="12.024" y="3.841" class="j">dict2anki</text><text x="22.044" y="3.841" class="j">-</text></svg><svg x="560"><use xlink:href="#a"/><use xlink:href="#b" x="23.996" y="2.146"/><use xlink:href="#1"/><use xlink:href="#3" y="2.171"/></svg><svg x="640"><use xlink:href="#a"/><use xlink:href="#b" x="24.996" y="2.146"/><use xlink:href="#1"/><use xlink:href="#3" y="2.171"/></svg><svg x="720"><use xlink:href="#a"/><use xlink:href="#b" x="25.996" y="2.146"/><use xlink:href="#1"/><text y="3.841" class="h">Downloads</text><text x="10.02" y="3.841" class="i">%</text><text x="12.024" y="3.841" class="j">dict2anki</text><text x="22.044" y="3.841" class="j">-i</text><text x="25.05" y="3.841" class="j">v</text></svg><svg x="800"><use xlink:href="#a"/><use xlink:href="#b" x="26.996" y="2.146"/><use xlink:href="#1"/><text y="3.841" class="h">Downloads</text><text x="10.02" y="3.841" class="i">%</text><text x="12.024" y="3.841" class="j">dict2anki</text><text x="22.044" y="3.841" class="j">-i</text><text x="25.05" y="3.841" class="j">vo</text></svg><svg x="880"><use xlink:href="#a"/><use xlink:href="#b" x="39.996" y="2.146"/><use xlink:href="#1"/><use xlink:href="#4" y="2.171"/></svg><svg x="960"><use xlink:href="#a"/><use xlink:href="#b" x="-.004" y="4.317"/><use xlink:href="#1"/><use xlink:href="#4" y="2.171"/></svg><svg x="1040"><use xlink:href="#a"/><use xlink:href="#b" x="-.004" y="8.659"/><use xlink:href="#1"/><use xlink:href="#4" y="2.171"/><use xlink:href="#5" y="4.342"/><use xlink:href="#6" y="6.513"/></svg><svg x="1120"><use xlink:href="#a"/><use xlink:href="#b" x="-.004" y="17.343"/><use xlink:href="#1"/><use xlink:href="#4" y="2.171"/><use xlink:href="#5" y="4.342"/><use xlink:href="#6" y="6.513"/><use xlink:href="#7" y="8.684"/><use xlink:href="#8" y="10.855"/><use xlink:href="#9" y="13.026"/><use xlink:href="#10" y="15.197"/></svg><svg x="1200"><use xlink:href="#a"/><use xlink:href="#b" x="-.004" y="19.514"/><use xlink:href="#1"/><use xlink:href="#4" y="2.171"/><use xlink:href="#5" y="4.342"/><use xlink:href="#6" y="6.513"/><use xlink:href="#7" y="8.684"/><use xlink:href="#8" y="10.855"/><use xlink:href="#9" y="13.026"/><use xlink:href="#10" y="15.197"/><use xlink:href="#11" y="17.368"/></svg><svg x="1280"><use xlink:href="#a"/><use xlink:href="#b" x="-.004" y="23.856"/><use xlink:href="#1"/><use xlink:href="#4" y="2.171"/><use xlink:href="#5" y="4.342"/><use xlink:href="#6" y="6.513"/><use xlink:href="#7" y="8.684"/><use xlink:href="#8" y="10.855"/><use xlink:href="#9" y="13.026"/><use xlink:href="#10" y="15.197"/><use xlink:href="#11" y="17.368"/><use xlink:href="#12" y="19.539"/><use xlink:href="#13" y="21.71"/></svg><svg x="1360"><use xlink:href="#a"/><use xlink:href="#b" x="75.996" y="28.198"/><use xlink:href="#1"/><use xlink:href="#4" y="2.171"/><use xlink:href="#5" y="4.342"/><use xlink:href="#6" y="6.513"/><use xlink:href="#7" y="8.684"/><use xlink:href="#8" y="10.855"/><use xlink:href="#9" y="13.026"/><use xlink:href="#10" y="15.197"/><use xlink:href="#11" y="17.368"/><use xlink:href="#12" y="19.539"/><use xlink:href="#13" y="21.71"/><use xlink:href="#14" y="23.881"/><use xlink:href="#15" y="26.052"/><text x="1.002" y="29.893" class="j">10.0%</text><text x="7.014" y="29.893" class="j">├██───────────────────────┤</text><text x="43.086" y="29.893" class="j">1</text><text x="45.09" y="29.893" class="j">/</text><text x="47.094" y="29.893" class="j">10</text><text x="69.138" y="29.893" class="j">abandon</text></svg><svg x="1440"><use xlink:href="#a"/><use xlink:href="#b" x="75.996" y="28.198"/><use xlink:href="#1"/><use xlink:href="#4" y="2.171"/><use xlink:href="#5" y="4.342"/><use xlink:href="#6" y="6.513"/><use xlink:href="#7" y="8.684"/><use xlink:href="#8" y="10.855"/><use xlink:href="#9" y="13.026"/><use xlink:href="#10" y="15.197"/><use xlink:href="#11" y="17.368"/><use xlink:href="#12" y="19.539"/><use xlink:href="#13" y="21.71"/><use xlink:href="#14" y="23.881"/><use xlink:href="#15" y="26.052"/><text x="1.002" y="29.893" class="j">20.0%</text><text x="7.014" y="29.893" class="j">├█████────────────────────┤</text><text x="43.086" y="29.893" class="j">2</text><text x="45.09" y="29.893" class="j">/</text><text x="47.094" y="29.893" class="j">10</text><text x="66.132" y="29.893" class="j">abbreviate</text></svg><svg x="1520"><use xlink:href="#a"/><use xlink:href="#b" x="75.996" y="28.198"/><use xlink:href="#1"/><use xlink:href="#4" y="2.171"/><use xlink:href="#5" y="4.342"/><use xlink:href="#6" y="6.513"/><use xlink:href="#7" y="8.684"/><use xlink:href="#8" y="10.855"/><use xlink:href="#9" y="13.026"/><use xlink:href="#10" y="15.197"/><use xlink:href="#11" y="17.368"/><use xlink:href="#12" y="19.539"/><use xlink:href="#13" y="21.71"/><use xlink:href="#14" y="23.881"/><use xlink:href="#15" y="26.052"/><text x="1.002" y="29.893" class="j">30.0%</text><text x="7.014" y="29.893" class="j">├███████──────────────────┤</text><text x="43.086" y="29.893" class="j">3</text><text x="45.09" y="29.893" class="j">/</text><text x="47.094" y="29.893" class="j">10</text><text x="70.14" y="29.893" class="j">abduct</text></svg><svg x="1600"><use xlink:href="#a"/><use xlink:href="#b" x="75.996" y="28.198"/><use xlink:href="#1"/><use xlink:href="#4" y="2.171"/><use xlink:href="#5" y="4.342"/><use xlink:href="#6" y="6.513"/><use xlink:href="#7" y="8.684"/><use xlink:href="#8" y="10.855"/><use xlink:href="#9" y="13.026"/><use xlink:href="#10" y="15.197"/><use xlink:href="#11" y="17.368"/><use xlink:href="#12" y="19.539"/><use xlink:href="#13" y="21.71"/><use xlink:href="#14" y="23.881"/><use xlink:href="#15" y="26.052"/><text x="1.002" y="29.893" class="j">40.0%</text><text x="7.014" y="29.893" class="j">├██████████───────────────┤</text><text x="43.086" y="29.893" class="j">4</text><text x="45.09" y="29.893" class="j">/</text><text x="47.094" y="29.893" class="j">10</text><text x="71.142" y="29.893" class="j">abide</text></svg><svg x="1680"><use xlink:href="#a"/><use xlink:href="#b" x="75.996" y="28.198"/><use xlink:href="#1"/><use xlink:href="#4" y="2.171"/><use xlink:href="#5" y="4.342"/><use xlink:href="#6" y="6.513"/><use xlink:href="#7" y="8.684"/><use xlink:href="#8" y="10.855"/><use xlink:href="#9" y="13.026"/><use xlink:href="#10" y="15.197"/><use xlink:href="#11" y="17.368"/><use xlink:href="#12" y="19.539"/><use xlink:href="#13" y="21.71"/><use xlink:href="#14" y="23.881"/><use xlink:href="#15" y="26.052"/><text x="1.002" y="29.893" class="j">50.0%</text><text x="7.014" y="29.893" class="j">├████████████─────────────┤</text><text x="43.086" y="29.893" class="j">5</text><text x="45.09" y="29.893" class="j">/</text><text x="47.094" y="29.893" class="j">10</text><text x="64.128" y="29.893" class="j">abide</text><text x="70.14" y="29.893" class="j">by</text><text x="73.146" y="29.893" class="j">sth</text></svg><svg x="1760"><use xlink:href="#a"/><use xlink:href="#b" x="75.996" y="28.198"/><use xlink:href="#1"/><use xlink:href="#4" y="2.171"/><use xlink:href="#5" y="4.342"/><use xlink:href="#6" y="6.513"/><use xlink:href="#7" y="8.684"/><use xlink:href="#8" y="10.855"/><use xlink:href="#9" y="13.026"/><use xlink:href="#10" y="15.197"/><use xlink:href="#11" y="17.368"/><use xlink:href="#12" y="19.539"/><use xlink:href="#13" y="21.71"/><use xlink:href="#14" y="23.881"/><use xlink:href="#15" y="26.052"/><text x="1.002" y="29.893" class="j">60.0%</text><text x="7.014" y="29.893" class="j">├███████████████──────────┤</text><text x="43.086" y="29.893" class="j">6</text><text x="45.09" y="29.893" class="j">/</text><text x="47.094" y="29.893" class="j">10</text><text x="70.14" y="29.893" class="j">abject</text></svg><svg x="1840"><use xlink:href="#a"/><use xlink:href="#b" x="75.996" y="28.198"/><use xlink:href="#1"/><use xlink:href="#4" y="2.171"/><use xlink:href="#5" y="4.342"/><use xlink:href="#6" y="6.513"/><use xlink:href="#7" y="8.684"/><use xlink:href="#8" y="10.855"/><use xlink:href="#9" y="13.026"/><use xlink:href="#10" y="15.197"/><use xlink:href="#11" y="17.368"/><use xlink:href="#12" y="19.539"/><use xlink:href="#13" y="21.71"/><use xlink:href="#14" y="23.881"/><use xlink:href="#15" y="26.052"/><text x="1.002" y="29.893" class="j">70.0%</text><text x="7.014" y="29.893" class="j">├█████████████████────────┤</text><text x="43.086" y="29.893" class="j">7</text><text x="45.09" y="29.893" class="j">/</text><text x="47.094" y="29.893" class="j">10</text><text x="69.138" y="29.893" class="j">abolish</text></svg><svg x="1920"><use xlink:href="#a"/><use xlink:href="#b" x="75.996" y="28.198"/><use xlink:href="#1"/><use xlink:href="#4" y="2.171"/><use xlink:href="#5" y="4.342"/><use xlink:href="#6" y="6.513"/><use xlink:href="#7" y="8.684"/><use xlink:href="#8" y="10.855"/><use xlink:href="#9" y="13.026"/><use xlink:href="#10" y="15.197"/><use xlink:href="#11" y="17.368"/><use xlink:href="#12" y="19.539"/><use xlink:href="#13" y="21.71"/><use xlink:href="#14" y="23.881"/><use xlink:href="#15" y="26.052"/><text x="1.002" y="29.893" class="j">80.0%</text><text x="7.014" y="29.893" class="j">├████████████████████─────┤</text><text x="43.086" y="29.893" class="j">8</text><text x="45.09" y="29.893" class="j">/</text><text x="47.094" y="29.893" class="j">10</text><text x="71.142" y="29.893" class="j">abort</text></svg><svg x="2000"><use xlink:href="#a"/><use xlink:href="#b" x="75.996" y="28.198"/><use xlink:href="#1"/><use xlink:href="#4" y="2.171"/><use xlink:href="#5" y="4.342"/><use xlink:href="#6" y="6.513"/><use xlink:href="#7" y="8.684"/><use xlink:href="#8" y="10.855"/><use xlink:href="#9" y="13.026"/><use xlink:href="#10" y="15.197"/><use xlink:href="#11" y="17.368"/><use xlink:href="#12" y="19.539"/><use xlink:href="#13" y="21.71"/><use xlink:href="#14" y="23.881"/><use xlink:href="#15" y="26.052"/><text x="1.002" y="29.893" class="j">90.0%</text><text x="7.014" y="29.893" class="j">├██████████████████████───┤</text><text x="43.086" y="29.893" class="j">9</text><text x="45.09" y="29.893" class="j">/</text><text x="47.094" y="29.893" class="j">10</text><text x="68.136" y="29.893" class="j">abortion</text></svg><svg x="2080"><use xlink:href="#a"/><use xlink:href="#b" x="75.996" y="28.198"/><use xlink:href="#1"/><use xlink:href="#4" y="2.171"/><use xlink:href="#5" y="4.342"/><use xlink:href="#6" y="6.513"/><use xlink:href="#7" y="8.684"/><use xlink:href="#8" y="10.855"/><use xlink:href="#9" y="13.026"/><use xlink:href="#10" y="15.197"/><use xlink:href="#11" y="17.368"/><use xlink:href="#12" y="19.539"/><use xlink:href="#13" y="21.71"/><use xlink:href="#14" y="23.881"/><use xlink:href="#15" y="26.052"/><use xlink:href="#16" y="28.223"/></svg><svg x="2160"><use xlink:href="#a"/><use xlink:href="#b" x="-.004" y="32.54"/><use xlink:href="#1"/><use xlink:href="#4" y="2.171"/><use xlink:href="#5" y="4.342"/><use xlink:href="#6" y="6.513"/><use xlink:href="#7" y="8.684"/><use xlink:href="#8" y="10.855"/><use xlink:href="#9" y="13.026"/><use xlink:href="#10" y="15.197"/><use xlink:href="#11" y="17.368"/><use xlink:href="#12" y="19.539"/><use xlink:href="#13" y="21.71"/><use xlink:href="#14" y="23.881"/><use xlink:href="#15" y="26.052"/><use xlink:href="#16" y="28.223"/><use xlink:href="#17" y="30.394"/></svg><svg x="2240"><use xlink:href="#a"/><use xlink:href="#b" x="-.004" y="34.711"/><use xlink:href="#1"/><use xlink:href="#4" y="2.171"/><use xlink:href="#5" y="4.342"/><use xlink:href="#6" y="6.513"/><use xlink:href="#7" y="8.684"/><use xlink:href="#8" y="10.855"/><use xlink:href="#9" y="13.026"/><use xlink:href="#10" y="15.197"/><use xlink:href="#11" y="17.368"/><use xlink:href="#12" y="19.539"/><use xlink:href="#13" y="21.71"/><use xlink:href="#14" y="23.881"/><use xlink:href="#15" y="26.052"/><use xlink:href="#16" y="28.223"/><use xlink:href="#17" y="30.394"/><use xlink:href="#1" y="32.565"/></svg><svg x="2320"><use xlink:href="#a"/><use xlink:href="#b" x="11.996" y="34.711"/><use xlink:href="#1"/><use xlink:href="#4" y="2.171"/><use xlink:href="#5" y="4.342"/><use xlink:href="#6" y="6.513"/><use xlink:href="#7" y="8.684"/><use xlink:href="#8" y="10.855"/><use xlink:href="#9" y="13.026"/><use xlink:href="#10" y="15.197"/><use xlink:href="#11" y="17.368"/><use xlink:href="#12" y="19.539"/><use xlink:href="#13" y="21.71"/><use xlink:href="#14" y="23.881"/><use xlink:href="#15" y="26.052"/><use xlink:href="#16" y="28.223"/><use xlink:href="#17" y="30.394"/><use xlink:href="#1" y="32.565"/><use xlink:href="#2" y="34.736"/></svg><svg x="2400"><use xlink:href="#a"/><use xlink:href="#b" x="12.996" y="34.711"/><use xlink:href="#1"/><use xlink:href="#4" y="2.171"/><use xlink:href="#5" y="4.342"/><use xlink:href="#6" y="6.513"/><use xlink:href="#7" y="8.684"/><use xlink:href="#8" y="10.855"/><use xlink:href="#9" y="13.026"/><use xlink:href="#10" y="15.197"/><use xlink:href="#11" y="17.368"/><use xlink:href="#12" y="19.539"/><use xlink:href="#13" y="21.71"/><use xlink:href="#14" y="23.881"/><use xlink:href="#15" y="26.052"/><use xlink:href="#16" y="28.223"/><use xlink:href="#17" y="30.394"/><use xlink:href="#1" y="32.565"/><text y="36.406" class="h">Downloads</text><text x="10.02" y="36.406" class="i">%</text><text x="12.024" y="36.406" class="j">t</text></svg><svg x="2480"><use xlink:href="#a"/><use xlink:href="#b" x="13.996" y="34.711"/><use xlink:href="#1"/><use xlink:href="#4" y="2.171"/><use xlink:href="#5" y="4.342"/><use xlink:href="#6" y="6.513"/><use xlink:href="#7" y="8.684"/><use xlink:href="#8" y="10.855"/><use xlink:href="#9" y="13.026"/><use xlink:href="#10" y="15.197"/><use xlink:href="#11" y="17.368"/><use xlink:href="#12" y="19.539"/><use xlink:href="#13" y="21.71"/><use xlink:href="#14" y="23.881"/><use xlink:href="#15" y="26.052"/><use xlink:href="#16" y="28.223"/><use xlink:href="#17" y="30.394"/><use xlink:href="#1" y="32.565"/><text y="36.406" class="h">Downloads</text><text x="10.02" y="36.406" class="i">%</text><text x="12.024" y="36.406" class="j">tr</text></svg><svg x="2560"><use xlink:href="#a"/><use xlink:href="#b" x="14.996" y="34.711"/><use xlink:href="#1"/><use xlink:href="#4" y="2.171"/><use xlink:href="#5" y="4.342"/><use xlink:href="#6" y="6.513"/><use xlink:href="#7" y="8.684"/><use xlink:href="#8" y="10.855"/><use xlink:href="#9" y="13.026"/><use xlink:href="#10" y="15.197"/><use xlink:href="#11" y="17.368"/><use xlink:href="#12" y="19.539"/><use xlink:href="#13" y="21.71"/><use xlink:href="#14" y="23.881"/><use xlink:href="#15" y="26.052"/><use xlink:href="#16" y="28.223"/><use xlink:href="#17" y="30.394"/><use xlink:href="#1" y="32.565"/><text y="36.406" class="h">Downloads</text><text x="10.02" y="36.406" class="i">%</text><text x="12.024" y="36.406" class="j">tre</text></svg><svg x="2640"><use xlink:href="#a"/><use xlink:href="#b" x="15.996" y="34.711"/><use xlink:href="#1"/><use xlink:href="#4" y="2.171"/><use xlink:href="#5" y="4.342"/><use xlink:href="#6" y="6.513"/><use xlink:href="#7" y="8.684"/><use xlink:href="#8" y="10.855"/><use xlink:href="#9" y="13.026"/><use xlink:href="#10" y="15.197"/><use xlink:href="#11" y="17.368"/><use xlink:href="#12" y="19.539"/><use xlink:href="#13" y="21.71"/><use xlink:href="#14" y="23.881"/><use xlink:href="#15" y="26.052"/><use xlink:href="#16" y="28.223"/><use xlink:href="#17" y="30.394"/><use xlink:href="#1" y="32.565"/><use xlink:href="#18" y="34.736"/></svg><svg x="2720"><use xlink:href="#a"/><use xlink:href="#b" x="16.996" y="34.711"/><use xlink:href="#1"/><use xlink:href="#4" y="2.171"/><use xlink:href="#5" y="4.342"/><use xlink:href="#6" y="6.513"/><use xlink:href="#7" y="8.684"/><use xlink:href="#8" y="10.855"/><use xlink:href="#9" y="13.026"/><use xlink:href="#10" y="15.197"/><use xlink:href="#11" y="17.368"/><use xlink:href="#12" y="19.539"/><use xlink:href="#13" y="21.71"/><use xlink:href="#14" y="23.881"/><use xlink:href="#15" y="26.052"/><use xlink:href="#16" y="28.223"/><use xlink:href="#17" y="30.394"/><use xlink:href="#1" y="32.565"/><use xlink:href="#18" y="34.736"/></svg><svg x="2800"><use xlink:href="#a"/><use xlink:href="#b" x="17.996" y="34.711"/><use xlink:href="#1"/><use xlink:href="#4" y="2.171"/><use xlink:href="#5" y="4.342"/><use xlink:href="#6" y="6.513"/><use xlink:href="#7" y="8.684"/><use xlink:href="#8" y="10.855"/><use xlink:href="#9" y="13.026"/><use xlink:href="#10" y="15.197"/><use xlink:href="#11" y="17.368"/><use xlink:href="#12" y="19.539"/><use xlink:href="#13" y="21.71"/><use xlink:href="#14" y="23.881"/><use xlink:href="#15" y="26.052"/><use xlink:href="#16" y="28.223"/><use xlink:href="#17" y="30.394"/><use xlink:href="#1" y="32.565"/><text y="36.406" class="h">Downloads</text><text x="10.02" y="36.406" class="i">%</text><text x="12.024" y="36.406" class="j">tree</text><text x="17.034" y="36.406" class="j">c</text></svg><svg x="2880"><use xlink:href="#a"/><use xlink:href="#b" x="18.996" y="34.711"/><use xlink:href="#1"/><use xlink:href="#4" y="2.171"/><use xlink:href="#5" y="4.342"/><use xlink:href="#6" y="6.513"/><use xlink:href="#7" y="8.684"/><use xlink:href="#8" y="10.855"/><use xlink:href="#9" y="13.026"/><use xlink:href="#10" y="15.197"/><use xlink:href="#11" y="17.368"/><use xlink:href="#12" y="19.539"/><use xlink:href="#13" y="21.71"/><use xlink:href="#14" y="23.881"/><use xlink:href="#15" y="26.052"/><use xlink:href="#16" y="28.223"/><use xlink:href="#17" y="30.394"/><use xlink:href="#1" y="32.565"/><text y="36.406" class="h">Downloads</text><text x="10.02" y="36.406" class="i">%</text><text x="12.024" y="36.406" class="j">tree</text><text x="17.034" y="36.406" class="j">ca</text></svg><svg x="2960"><use xlink:href="#a"/><use xlink:href="#b" x="19.996" y="34.711"/><use xlink:href="#1"/><use xlink:href="#4" y="2.171"/><use xlink:href="#5" y="4.342"/><use xlink:href="#6" y="6.513"/><use xlink:href="#7" y="8.684"/><use xlink:href="#8" y="10.855"/><use xlink:href="#9" y="13.026"/><use xlink:href="#10" y="15.197"/><use xlink:href="#11" y="17.368"/><use xlink:href="#12" y="19.539"/><use xlink:href="#13" y="21.71"/><use xlink:href="#14" y="23.881"/><use xlink:href="#15" y="26.052"/><use xlink:href="#16" y="28.223"/><use xlink:href="#17" y="30.394"/><use xlink:href="#1" y="32.565"/><text y="36.406" class="h">Downloads</text><text x="10.02" y="36.406" class="i">%</text><text x="12.024" y="36.406" class="j">tree</text><text x="17.034" y="36.406" class="j">cam</text></svg><svg x="3040"><use xlink:href="#a"/><use xlink:href="#b" x="26.996" y="34.711"/><use xlink:href="#1"/><use xlink:href="#4" y="2.171"/><use xlink:href="#5" y="4.342"/><use xlink:href="#6" y="6.513"/><use xlink:href="#7" y="8.684"/><use xlink:href="#8" y="10.855"/><use xlink:href="#9" y="13.026"/><use xlink:href="#10" y="15.197"/><use xlink:href="#11" y="17.368"/><use xlink:href="#12" y="19.539"/><use xlink:href="#13" y="21.71"/><use xlink:href="#14" y="23.881"/><use xlink:href="#15" y="26.052"/><use xlink:href="#16" y="28.223"/><use xlink:href="#17" y="30.394"/><use xlink:href="#1" y="32.565"/><text y="36.406" class="h">Downloads</text><text x="10.02" y="36.406" class="i">%</text><text x="12.024" y="36.406" class="j">tree</text><text x="17.034" y="36.406" class="j">cambridge</text><text x="26.052" y="36.406" class="i">/</text></svg><svg x="3120"><use xlink:href="#a"/><use xlink:href="#b" x="-.004" y="36.882"/><use xlink:href="#1"/><use xlink:href="#4" y="2.171"/><use xlink:href="#5" y="4.342"/><use xlink:href="#6" y="6.513"/><use xlink:href="#7" y="8.684"/><use xlink:href="#8" y="10.855"/><use xlink:href="#9" y="13.026"/><use xlink:href="#10" y="15.197"/><use xlink:href="#11" y="17.368"/><use xlink:href="#12" y="19.539"/><use xlink:href="#13" y="21.71"/><use xlink:href="#14" y="23.881"/><use xlink:href="#15" y="26.052"/><use xlink:href="#16" y="28.223"/><use xlink:href="#17" y="30.394"/><use xlink:href="#1" y="32.565"/><use xlink:href="#19" y="34.736"/></svg><svg x="3200"><use xlink:href="#a"/><use xlink:href="#b" x="-.004" y="43.395"/><use xlink:href="#10"/><use xlink:href="#11" y="2.171"/><use xlink:href="#12" y="4.342"/><use xlink:href="#13" y="6.513"/><use xlink:href="#14" y="8.684"/><use xlink:href="#15" y="10.855"/><use xlink:href="#16" y="13.026"/><use xlink:href="#17" y="15.197"/><use xlink:href="#1" y="17.368"/><use xlink:href="#19" y="19.539"/><use xlink:href="#20" y="21.71"/><use xlink:href="#21" y="23.881"/><use xlink:href="#22" y="26.052"/><use xlink:href="#23" y="28.223"/><use xlink:href="#24" y="30.394"/><use xlink:href="#25" y="32.565"/><use xlink:href="#26" y="34.736"/><use xlink:href="#27" y="39.078"/><use xlink:href="#1" y="41.249"/></svg><svg x="3280"><use xlink:href="#a"/><use xlink:href="#b" x="11.996" y="43.395"/><use xlink:href="#10"/><use xlink:href="#11" y="2.171"/><use xlink:href="#12" y="4.342"/><use xlink:href="#13" y="6.513"/><use xlink:href="#14" y="8.684"/><use xlink:href="#15" y="10.855"/><use xlink:href="#16" y="13.026"/><use xlink:href="#17" y="15.197"/><use xlink:href="#1" y="17.368"/><use xlink:href="#19" y="19.539"/><use xlink:href="#20" y="21.71"/><use xlink:href="#21" y="23.881"/><use xlink:href="#22" y="26.052"/><use xlink:href="#23" y="28.223"/><use xlink:href="#24" y="30.394"/><use xlink:href="#25" y="32.565"/><use xlink:href="#26" y="34.736"/><use xlink:href="#27" y="39.078"/><use xlink:href="#1" y="41.249"/><use xlink:href="#2" y="43.42"/></svg><svg x="3360"><use xlink:href="#a"/><use xlink:href="#b" x="-.004" y="43.395"/><use xlink:href="#11"/><use xlink:href="#12" y="2.171"/><use xlink:href="#13" y="4.342"/><use xlink:href="#14" y="6.513"/><use xlink:href="#15" y="8.684"/><use xlink:href="#16" y="10.855"/><use xlink:href="#17" y="13.026"/><use xlink:href="#1" y="15.197"/><use xlink:href="#19" y="17.368"/><use xlink:href="#20" y="19.539"/><use xlink:href="#21" y="21.71"/><use xlink:href="#22" y="23.881"/><use xlink:href="#23" y="26.052"/><use xlink:href="#24" y="28.223"/><use xlink:href="#25" y="30.394"/><use xlink:href="#26" y="32.565"/><use xlink:href="#27" y="36.907"/><use xlink:href="#1" y="39.078"/><use xlink:href="#2" y="41.249"/></svg></svg></g></g></svg></svg>